HIERARCHY
ROOT Hips
{
 OFFSET 0.000000 0.000000 0.000000
 CHANNELS 6 Xposition Yposition Zposition Yrotation Xrotation Zrotation
 JOINT Chest
 {
  OFFSET 0.000000 9.585900 0.002600
  CHANNELS 3 Yrotation Xrotation Zrotation
  JOINT Chest2
  {
   OFFSET 0.000000 9.601200 -0.005300
   CHANNELS 3 Yrotation Xrotation Zrotation
   JOINT Chest3
   {
    OFFSET 0.000000 9.561800 0.000000
    CHANNELS 3 Yrotation Xrotation Zrotation
    JOINT Chest4
    {
     OFFSET 0.000000 9.552100 0.000000
     CHANNELS 3 Yrotation Xrotation Zrotation
     JOINT Neck
     {
      OFFSET 0.000000 14.453000 0.000000
      CHANNELS 3 Yrotation Xrotation Zrotation
      JOINT Head
      {
       OFFSET 0.000000 8.936500 -0.011300
       CHANNELS 3 Yrotation Xrotation Zrotation
       End Site
       {
        OFFSET 0.000000 17.073600 -0.006000
       }
      }
     }
     JOINT RightCollar
     {
      OFFSET -2.921100 9.558500 0.000000
      CHANNELS 3 Yrotation Xrotation Zrotation
      JOINT RightShoulder
      {
       OFFSET -13.519700 0.000000 0.000000
       CHANNELS 3 Yrotation Xrotation Zrotation
       JOINT RightElbow
       {
        OFFSET 0.000000 -29.696600 0.000000
        CHANNELS 3 Yrotation Xrotation Zrotation
        JOINT RightWrist
        {
         OFFSET 0.000000 -24.004700 0.000000
         CHANNELS 3 Yrotation Xrotation Zrotation
         End Site
         {
          OFFSET 0.000000 -17.728500 0.000000
         }
        }
       }
      }
     }
     JOINT LeftCollar
     {
      OFFSET 2.921100 9.558500 0.000000
      CHANNELS 3 Yrotation Xrotation Zrotation
      JOINT LeftShoulder
      {
       OFFSET 13.519700 0.000000 0.000000
       CHANNELS 3 Yrotation Xrotation Zrotation
       JOINT LeftElbow
       {
        OFFSET 0.000000 -29.696600 0.000000
        CHANNELS 3 Yrotation Xrotation Zrotation
        JOINT LeftWrist
        {
         OFFSET 0.000000 -24.004700 0.000000
         CHANNELS 3 Yrotation Xrotation Zrotation
         End Site
         {
          OFFSET 0.000000 -17.728500 0.000000
         }
        }
       }
      }
     }
    }
   }
  }
 }
 JOINT RightHip
 {
  OFFSET -7.771700 -0.012900 -0.001300
  CHANNELS 3 Yrotation Xrotation Zrotation
  JOINT RightKnee
  {
   OFFSET 0.000000 -40.869800 0.001200
   CHANNELS 3 Yrotation Xrotation Zrotation
   JOINT RightAnkle
   {
    OFFSET 0.000000 -39.717900 0.002100
    CHANNELS 3 Yrotation Xrotation Zrotation
    JOINT RightToe
    {
     OFFSET 0.000000 -4.965400 11.033500
     CHANNELS 3 Yrotation Xrotation Zrotation
     End Site
     {
      OFFSET 0.000000 -1.423100 5.872300
     }
    }
   }
  }
 }
 JOINT LeftHip
 {
  OFFSET 7.771700 -0.012900 -0.001300
  CHANNELS 3 Yrotation Xrotation Zrotation
  JOINT LeftKnee
  {
   OFFSET 0.000000 -40.869800 0.001200
   CHANNELS 3 Yrotation Xrotation Zrotation
   JOINT LeftAnkle
   {
    OFFSET 0.000000 -39.717900 0.002100
    CHANNELS 3 Yrotation Xrotation Zrotation
    JOINT LeftToe
    {
     OFFSET 0.000000 -4.965400 11.033500
     CHANNELS 3 Yrotation Xrotation Zrotation
     End Site
     {
      OFFSET 0.000000 -1.423100 5.872300
     }
    }
   }
  }
 }
}
MOTION
Frames: 17
Frame Time: 0.008333
0.000000 85.388000 0.000000 0.000000 -5.767877 0.000000 0.000000 11.653817 0.000000 0.000000 -5.885947 0.000000 0.000000 -0.000000 0.000000 0.000000 -0.000000 0.000000 0.000000 12.528835 0.000000 0.000000 0.711642 0.000000 0.000000 -0.000000 0.000000 0.000000 0.000000 -90.000000 0.000000 -2.309062 0.000000 0.000000 2.309062 0.000000 0.000000 -0.000000 0.000000 0.000000 -0.000000 90.000000 0.000000 -2.309062 0.000000 0.000000 2.309062 0.000000 0.000000 8.520406 0.000000 0.000000 1.905762 0.000000 -0.000000 -4.658285 0.000000 0.000000 -0.000000 0.000000 0.000000 8.520406 0.000000 0.000000 1.905762 0.000000 -0.000000 -4.658285 0.000000 0.000000 -0.000000 0.000000
-58.384602 62.004659 15.287810 174.898592 -53.016191 -1.113046 4.599434 26.715825 1.280301 0.731674 4.573904 0.090802 1.143914 7.281923 0.156909 3.576804 21.818521 0.930610 -0.690918 14.618693 0.046624 -1.408174 -8.674752 0.341387 10.748612 4.210049 8.550451 23.882089 -33.830083 -24.905053 -64.394198 -39.568949 116.647281 -4.290982 1.313390 5.821829 -13.300726 2.713557 -3.497995 -21.527595 -31.910032 25.930614 50.415614 -46.450837 -92.403084 11.703310 3.502980 -14.201680 0.258615 -14.136983 -2.354259 -4.503283 63.537301 -7.488393 0.953810 -6.889819 7.306781 -0.005208 -0.102008 0.012183 -3.404930 -11.892397 6.192243 25.118274 75.330324 26.710228 0.814443 -9.638687 -5.176708 0.057032 0.114752 0.018068
-58.386234 62.003985 15.289523 174.909468 -52.997160 -1.123784 4.586173 26.708472 1.273420 0.721918 4.583807 0.084248 1.139520 7.281259 0.153948 3.581488 21.809361 0.928552 -0.741522 14.575982 0.025700 -1.348961 -8.668195 0.344030 10.766062 4.186964 8.534587 23.957399 -33.871019 -24.931197 -64.443638 -39.568727 116.824936 -4.296109 1.475772 6.049840 -13.302227 2.676413 -3.527259 -21.676057 -32.033288 25.871340 50.536002 -46.617237 -92.654780 11.315858 3.658808 -15.219823 0.259605 -14.152304 -2.354069 -4.503713 63.530893 -7.484533 0.950941 -6.890115 7.308491 -0.007880 -0.097261 0.010167 -3.415634 -11.913211 6.193516 25.130999 75.329562 26.724718 0.810512 -9.637892 -5.180031 0.060167 0.115677 0.018886
-58.388111 62.005294 15.290190 174.915154 -52.990261 -1.129161 4.576476 26.713856 1.266592 0.700662 4.617991 0.062642 1.148186 7.259141 0.163661 3.585665 21.797665 0.926316 -0.751452 14.557192 0.017569 -1.340128 -8.745850 0.336062 10.784266 4.170730 8.530109 23.990361 -33.889016 -24.947527 -64.485308 -39.567484 117.011377 -4.293379 1.643593 6.274879 -13.309520 2.636882 -3.566971 -21.801925 -32.135622 25.818794 50.649192 -46.721612 -92.901145 10.910193 3.790490 -16.288710 0.262072 -14.154918 -2.355525 -4.504636 63.524945 -7.481053 0.948916 -6.889567 7.310142 -0.008317 -0.095025 0.008697 -3.420861 -11.920829 6.193282 25.139376 75.328192 26.733621 0.807984 -9.633117 -5.181055 0.058786 0.112207 0.020193
-58.389462 62.005650 15.292083 174.923362 -52.974362 -1.140031 4.564893 26.718588 1.253320 0.702368 4.608355 0.067945 1.141155 7.270414 0.153874 3.575638 21.800009 0.915698 -0.748073 14.535091 0.020738 -1.332810 -8.814289 0.336499 10.812929 4.140738 8.517474 24.003909 -33.909983 -24.946208 -64.511673 -39.549003 117.163598 -4.274955 1.794383 6.487352 -13.305761 2.597411 -3.587507 -21.904582 -32.231994 25.759448 50.768693 -46.792966 -93.166155 10.506038 3.904039 -17.413816 0.258578 -14.168357 -2.352416 -4.505288 63.519377 -7.479905 0.949751 -6.888090 7.312629 -0.010292 -0.092999 0.005899 -3.427480 -11.937571 6.198270 25.144729 75.326683 26.739589 0.805460 -9.631535 -5.180798 0.055972 0.113541 0.021432
-58.390011 62.005791 15.294682 174.918382 -52.955404 -1.144155 4.550360 26.739960 1.228578 0.714854 4.579327 0.082559 1.128637 7.283211 0.142594 3.563934 21.802228 0.901075 -0.721060 14.512041 0.031242 -1.335183 -8.861188 0.341428 10.828036 4.110633 8.473101 23.990505 -33.942536 -24.956164 -64.536340 -39.465204 117.325618 -4.249557 1.914207 6.676559 -13.294937 2.558939 -3.603850 -21.979331 -32.316681 25.694125 50.901669 -46.854613 -93.469530 10.119659 4.013570 -18.588699 0.261602 -14.184670 -2.348171 -4.484017 63.510165 -7.452173 0.942337 -6.883925 7.308292 -0.006842 -0.088934 0.003999 -3.427219 -11.956353 6.204393 25.148628 75.326368 26.745270 0.812514 -9.632603 -5.180188 0.051264 0.116021 0.019788
-58.391261 62.004837 15.298394 174.927520 -52.927562 -1.153815 4.542591 26.718086 1.224750 0.704426 4.613402 0.055654 1.126112 7.286953 0.135674 3.568318 21.786521 0.903992 -0.702528 14.488850 0.046777 -1.337446 -8.872289 0.369721 10.842007 4.078905 8.459316 23.964805 -33.949311 -24.948521 -64.555864 -39.419134 117.463967 -4.230854 1.989950 6.836334 -13.282387 2.527333 -3.594849 -22.033769 -32.400620 25.607413 51.044737 -46.915615 -93.814359 9.745579 4.125044 -19.803552 0.259073 -14.212319 -2.348380 -4.478278 63.507204 -7.440710 0.938398 -6.883386 7.306276 -0.002603 -0.086448 0.002810 -3.434479 -11.985198 6.204108 25.164441 75.319219 26.765337 0.812192 -9.629651 -5.182337 0.050249 0.120114 0.019512
-58.391745 62.006946 15.300132 174.926570 -52.923056 -1.156510 4.542109 26.731476 1.209453 0.707320 4.600191 0.068162 1.125897 7.287705 0.134726 3.551089 21.809344 0.875150 -0.692549 14.481314 0.061134 -1.319352 -8.862865 0.395674 10.851899 4.049021 8.451292 23.951194 -33.959885 -24.925853 -64.572316 -39.386801 117.557822 -4.218951 2.037919 6.965206 -13.274399 2.500104 -3.577463 -22.051135 -32.434833 25.569173 51.282268 -46.962976 -94.293134 9.375713 4.243931 -21.042016 0.260170 -14.214232 -2.344427 -4.472760 63.502721 -7.433317 0.932143 -6.884928 7.303910 0.000257 -0.082694 0.003903 -3.436481 -11.987073 6.203103 25.166698 75.314914 26.770571 0.819242 -9.627746 -5.182311 0.046402 0.120887 0.016908
-58.392003 62.008479 15.302540 174.925156 -52.915040 -1.158346 4.545278 26.763342 1.181068 0.708083 4.581979 0.079195 1.126561 7.291704 0.130887 3.550693 21.814504 0.863296 -0.683467 14.480692 0.078787 -1.307688 -8.873863 0.416617 10.851048 4.017006 8.445426 23.856846 -33.928545 -24.934483 -64.631645 -39.306863 117.754922 -4.205693 2.088739 7.065339 -13.283409 2.466673 -3.565599 -22.058340 -32.458762 25.538975 51.546264 -47.037091 -94.778752 9.019454 4.379698 -22.287126 0.261215 -14.221200 -2.340371 -4.465897 63.499832 -7.425509 0.925496 -6.888031 7.301650 0.002483 -0.079139 0.004537 -3.437856 -11.994392 6.202697 25.166231 75.313064 26.773088 0.824210 -9.626059 -5.178914 0.043972 0.121208 0.012202
-58.392588 62.009245 15.305677 174.926382 -52.902307 -1.159205 4.546401 26.769642 1.167445 0.709213 4.611487 0.060840 1.127549 7.289198 0.132383 3.552572 21.804302 0.860248 -0.672173 14.485785 0.096313 -1.298369 -8.890340 0.436647 10.848420 3.980885 8.442849 23.772689 -33.897785 -24.931402 -64.697392 -39.239437 117.921241 -4.167320 2.159906 7.119762 -13.292522 2.426152 -3.551167 -22.056555 -32.556861 25.369772 51.652502 -47.213629 -95.064577 8.693857 4.525678 -23.514956 0.260368 -14.233357 -2.342008 -4.455577 63.497697 -7.413457 0.922611 -6.892737 7.300429 0.007148 -0.080565 0.003750 -3.438424 -12.006700 6.200175 25.150363 75.311170 26.762270 0.829452 -9.625844 -5.178588 0.043546 0.123786 0.010921
-58.393235 62.010851 15.308317 174.926735 -52.897278 -1.158193 4.549205 26.781201 1.155322 0.709712 4.616466 0.058780 1.126881 7.283611 0.135917 3.544679 21.869017 0.814011 -0.648160 14.456927 0.138608 -1.263697 -8.799829 0.472680 10.857332 3.893607 8.470799 23.692731 -33.859859 -24.934414 -64.759620 -39.189295 118.063786 -4.048673 2.254975 7.100210 -13.291530 2.355760 -3.495914 -22.023416 -32.619109 25.250066 51.831887 -47.398173 -95.449053 8.410356 4.660973 -24.692252 0.257775 -14.236747 -2.345145 -4.451149 63.492991 -7.406771 0.922196 -6.895311 7.298271 0.010351 -0.078245 0.002828 -3.433812 -12.012966 6.188680 25.156802 75.307861 26.779955 0.843119 -9.621071 -5.179615 0.034954 0.121957 0.007601
-58.393868 62.012445 15.311106 174.934774 -52.893527 -1.163916 4.545610 26.792451 1.142742 0.711028 4.616817 0.061190 1.127925 7.317070 0.117312 3.548580 21.847042 0.823472 -0.636935 14.485026 0.144850 -1.231495 -8.722222 0.496772 10.840783 3.873804 8.450271 23.612836 -33.832356 -24.915042 -64.801530 -39.158584 118.192058 -3.787679 2.403802 6.999176 -13.285537 2.329953 -3.483970 -21.987166 -32.658919 25.155534 51.995838 -47.577547 -95.825338 8.182736 4.776476 -25.791587 0.249215 -14.238731 -2.347433 -4.456586 63.486107 -7.409095 0.924758 -6.893603 7.294360 0.014933 -0.076223 0.002915 -3.435435 -12.015953 6.183280 25.130788 75.303359 26.763389 0.851328 -9.615686 -5.184144 0.034743 0.122214 0.007845
-58.393953 62.013862 15.314223 174.940126 -52.889876 -1.172202 4.543261 26.799032 1.136015 0.709456 4.623828 0.056489 1.127997 7.331583 0.111226 3.559328 21.822977 0.837235 -0.630813 14.539391 0.142342 -1.201602 -8.654426 0.515162 10.804567 3.902395 8.389970 23.537684 -33.838831 -24.873717 -64.868019 -39.131067 118.333317 -3.411001 2.674623 6.867315 -13.287436 2.325287 -3.489908 -21.943017 -32.692169 25.076093 52.070195 -47.733269 -96.119602 8.035230 4.861325 -26.772997 0.244754 -14.240624 -2.343454 -4.475017 63.477504 -7.422545 0.930679 -6.888182 7.290920 0.015640 -0.080884 0.004399 -3.436698 -12.018322 6.185154 25.130689 75.293920 26.769290 0.850253 -9.609467 -5.186768 0.033915 0.122667 0.008831
-58.394029 62.015516 15.317266 174.942813 -52.889548 -1.180099 4.543809 26.801610 1.138346 0.702324 4.638732 0.041821 1.129117 7.334070 0.113087 3.559095 21.837973 0.827121 -0.610261 14.572961 0.155581 -1.167215 -8.575598 0.532729 10.799809 3.886012 8.375099 23.463445 -33.817018 -24.869658 -65.014416 -39.216371 118.510344 -3.162639 2.983742 6.820954 -13.279891 2.299287 -3.475418 -21.918701 -32.707714 25.047152 52.076298 -47.814829 -96.355387 7.958588 4.887465 -27.563188 0.237008 -14.237957 -2.339563 -4.484797 63.467312 -7.430056 0.939713 -6.886752 7.287770 0.010222 -0.087800 0.004559 -3.438186 -12.017589 6.190223 25.130996 75.289294 26.772348 0.851127 -9.607071 -5.188054 0.033267 0.123433 0.009678
-58.394328 62.018407 15.319400 174.945602 -52.900215 -1.187991 4.539410 26.819488 1.129383 0.700277 4.640780 0.043132 1.128403 7.340431 0.110981 3.555725 21.852708 0.818379 -0.589356 14.687600 0.166888 -1.130438 -8.558036 0.548639 10.796743 3.875193 8.358016 23.400381 -33.788759 -24.875969 -65.125178 -39.310807 118.698488 -3.022616 3.207288 6.869999 -13.267613 2.276537 -3.463051 -21.891730 -32.720774 25.015336 52.004732 -47.824717 -96.532575 7.889309 4.840113 -28.107491 0.229138 -14.222707 -2.334966 -4.495411 63.456998 -7.440070 0.946136 -6.886595 7.288991 0.010408 -0.088234 0.001959 -3.440427 -12.005492 6.195722 25.129381 75.285420 26.770441 0.852528 -9.602040 -5.187805 0.032353 0.120648 0.010582
-58.396110 62.020962 15.321599 174.948311 -52.910710 -1.188363 4.526990 26.836593 1.113159 0.706196 4.638330 0.048036 1.122996 7.347406 0.104185 3.548584 21.865048 0.810070 -0.566260 14.737665 0.178034 -1.095382 -8.456732 0.560296 10.794294 3.868445 8.342433 23.381361 -33.781711 -24.874741 -65.181862 -39.396887 118.853794 -2.990079 3.341293 6.984783 -13.250541 2.256853 -3.455379 -21.852022 -32.727837 24.952001 51.935901 -47.802210 -96.679049 7.793005 4.745442 -28.434694 0.221818 -14.208739 -2.341321 -4.493697 63.449081 -7.438075 0.954569 -6.884176 7.289399 0.008287 -0.091276 -0.000509 -3.439991 -11.994401 6.190967 25.133169 75.280285 26.774252 0.854857 -9.595815 -5.185634 0.029824 0.117597 0.010037
-58.397388 62.024168 15.323286 174.944688 -52.928584 -1.187091 4.524539 26.855578 1.104934 0.709228 4.639755 0.051707 1.122111 7.348565 0.103177 3.518025 21.893106 0.783051 -0.527116 14.778881 0.198177 -1.062221 -8.346300 0.569541 10.812585 3.844820 8.340079 23.364552 -33.764063 -24.882160 -65.191163 -39.421199 119.026384 -2.997064 3.410770 7.149443 -13.218244 2.228246 -3.434703 -21.822112 -32.719379 24.899058 51.975160 -47.764051 -96.845152 7.687128 4.637550 -28.632321 0.224374 -14.186290 -2.345111 -4.498323 63.439336 -7.434669 0.961084 -6.880132 7.286158 0.006658 -0.093791 -0.000315 -3.433363 -11.972042 6.188636 25.134513 75.270316 26.778502 0.856243 -9.593548 -5.186509 0.026595 0.118534 0.010962
